#!OML:ASF F:\VICON\USERDATA\INSTALL\rory3\rory3.ASF
:FULLY-SPECIFIED
:DEGREES
488
root 1.41058 16.6314 27.919 33.6039 9.50669 -0.499075
lowerback -15.8338 -2.8105 3.27806
upperback -13.7995 -3.92231 3.92506
thorax -5.90768 -2.04438 1.93791
lowerneck -4.78946 1.29828 -2.26589
upperneck 40.5949 2.06234 0.905194
head 14.8764 0.677043 1.06833
rclavicle 7.81472e-015 -2.14687e-014
rhumerus -18.6145 -15.7686 -1.83385
rradius 22.7131
rwrist 8.16444
rhand 21.0122 3.85993
rfingers 7.12502
rthumb 45.4768 -19.4493
lclavicle 7.81472e-015 -2.14687e-014
lhumerus 59.6396 8.25058 -9.2038
lradius 61.7062
lwrist -2.49885
lhand 17.5364 9.77032
lfingers 7.12502
lthumb 42.2335 34.2816
rfemur -59.015 0.49552 32.5507
rtibia 41.1821
rfoot -43.0022 -39.1783
rtoes 40.5662
lfemur -11.5964 -1.61665 -24.2021
ltibia 29.4975
lfoot -28.2349 31.9402
ltoes 51.1023
489
root 1.40351 16.6238 27.8881 33.3818 9.65216 -0.88403
lowerback -15.5994 -2.83249 3.71442
upperback -13.8019 -3.98362 3.99854
thorax -6.06427 -2.1076 1.78354
lowerneck -4.84861 1.42336 -2.02501
upperneck 40.542 2.25441 0.76584
head 14.8651 0.776851 0.991
rclavicle 2.28105e-014 -7.95139e-016
rhumerus -18.2315 -17.0605 -1.91616
rradius 22.226
rwrist 9.6277
rhand 21.2142 4.1951
rfingers 7.12502
rthumb 45.6645 -19.0379
lclavicle 2.28105e-014 -7.95139e-016
lhumerus 59.7446 9.14297 -8.63379
lradius 62.3743
lwrist 1.18741
lhand 18.3074 10.0443
lfingers 7.12502
lthumb 42.9552 34.306
rfemur -59.0289 0.215565 33.282
rtibia 41.3895
rfoot -43.006 -38.6857
rtoes 40.7995
lfemur -11.5527 -1.24377 -23.7938
ltibia 29.6775
lfoot -26.9067 32.4908
ltoes 50.6508
490
root 1.39816 16.6117 27.8525 33.276 9.35696 -0.719657
lowerback -15.3782 -2.91176 3.47513
upperback -13.872 -4.05607 3.91047
thorax -6.2468 -2.13223 1.83243
lowerneck -4.86862 1.63826 -1.56034
upperneck 40.4774 2.62872 0.385361
head 14.8468 0.958616 0.795742
rclavicle 5.1038e-014 5.56597e-015
rhumerus -17.8174 -18.4214 -2.00427
rradius 21.6431
rwrist 11.3506
rhand 21.2197 4.69598
rfingers 7.12502
rthumb 45.6696 -18.5349
lclavicle 5.1038e-014 5.56597e-015
lhumerus 60.0872 9.80881 -7.55925
lradius 62.7927
lwrist 4.77623
lhand 19.1012 10.5486
lfingers 7.12502
lthumb 43.6969 34.5436
rfemur -59.1532 -0.0885685 33.2843
rtibia 41.5027
rfoot -42.0375 -38.6874
rtoes 40.3857
lfemur -11.6482 -0.753518 -24.1745
ltibia 30.0945
lfoot -25.9346 32.6806
ltoes 50.3165
491
root 1.38744 16.5953 27.8178 33.2524 8.77715 -0.359641
lowerback -15.2105 -2.98558 2.85483
upperback -14.0014 -4.08845 3.78615
thorax -6.44021 -2.10705 2.05716
lowerneck -4.96531 1.91023 -1.54827
upperneck 40.6433 2.98211 0.55154
head 14.9438 1.12968 0.913724
rclavicle -4.61677e-014 6.36111e-015
rhumerus -17.4699 -19.3259 -2.0676
rradius 21.2128
rwrist 12.7566
rhand 21.4223 5.16786
rfingers 7.12502
rthumb 45.8577 -17.9857
lclavicle -4.61677e-014 6.36111e-015
lhumerus 60.6225 10.3223 -6.00811
lradius 62.9929
lwrist 8.22177
lhand 19.7085 10.9173
lfingers 7.12502
lthumb 44.2634 34.7013
rfemur -59.3435 -0.00146251 32.7718
rtibia 41.6127
rfoot -41.5352 -38.6397
rtoes 40.3781
lfemur -11.8486 -0.406718 -24.865
ltibia 30.5861
lfoot -24.7635 33.1611
ltoes 49.6407
492
root 1.40114 16.5951 27.7764 32.4751 9.45217 -1.50633
lowerback -14.4455 -2.9277 4.47212
upperback -13.9316 -4.1136 4.04552
thorax -6.88938 -2.24129 1.48652
lowerneck -4.31538 1.98783 -1.54118
upperneck 40.2308 3.05407 0.578085
head 14.5869 1.17241 0.91428
rclavicle 3.32964e-015 -1.03368e-014
rhumerus -16.9954 -21.4495 -2.06673
rradius 20.6579
rwrist 15.1088
rhand 21.6264 6.014
rfingers 7.12502
rthumb 46.047 -17.0609
lclavicle 3.32964e-015 -1.03368e-014
lhumerus 60.9438 11.1985 -4.58952
lradius 63.3459
lwrist 12.0601
lhand 20.507 11.2258
lfingers 7.12502
lthumb 45.0071 34.7226
rfemur -58.7967 -1.3518 35.0272
rtibia 41.6505
rfoot -39.7926 -38.1455
rtoes 39.4347
lfemur -11.5626 -0.171669 -23.505
ltibia 31.1757
lfoot -23.1013 33.8264
ltoes 48.7427
493
root 1.39201 16.5787 27.7288 32.0248 9.25041 -1.7615
lowerback -13.8029 -2.94706 4.61761
upperback -13.9069 -4.11491 4.05315
thorax -7.2198 -2.25668 1.45461
lowerneck -4.0315 2.11844 -1.53635
upperneck 39.9724 3.22562 0.598892
head 14.3925 1.25315 0.933746
rclavicle -8.54774e-015 2.3059e-014
rhumerus -16.8317 -20.5413 -2.53497
rradius 20.8397
rwrist 14.3938
rhand 21.4935 6.08311
rfingers 7.12502
rthumb 45.9238 -17.0431
lclavicle -8.54774e-015 2.3059e-014
lhumerus 61.4728 12.1843 -3.02033
lradius 63.6307
lwrist 16.2293
lhand 21.58 11.8924
lfingers 7.12502
lthumb 46.004 34.9852
rfemur -58.5042 -1.23326 35.2564
rtibia 41.7227
rfoot -39.5526 -37.9461
rtoes 38.9069
lfemur -11.6115 0.316839 -23.3977
ltibia 31.9913
lfoot -21.2124 34.2741
ltoes 47.7827
494
root 1.37931 16.553 27.68 31.7963 8.78445 -1.6462
lowerback -13.4953 -2.98745 4.25425
upperback -13.8181 -4.13299 3.97462
thorax -7.25727 -2.24012 1.58208
lowerneck -3.98816 2.39367 -1.67697
upperneck 39.5557 3.59154 0.777683
head 14.1658 1.41965 1.06909
rclavicle -6.95746e-016 3.97569e-015
rhumerus -16.8655 -17.0591 -3.37504
rradius 21.8023
rwrist 11.0298
rhand 21.1039 5.13685
rfingers 7.12502
rthumb 45.5621 -18.1378
lclavicle -6.95746e-016 3.97569e-015
lhumerus 62.1089 13.2492 -1.09298
lradius 63.7406
lwrist 20.0771
lhand 22.797 12.5296
lfingers 7.12502
lthumb 47.1313 35.1377
rfemur -58.4876 -0.86641 34.8961
rtibia 41.8835
rfoot -39.8028 -37.707
rtoes 38.0418
lfemur -11.8042 0.760082 -23.7659
ltibia 32.8535
lfoot -21.0566 33.428
ltoes 47.8476
495
root 1.37795 16.5514 27.6398 31.5118 8.81539 -1.86904
lowerback -13.7632 -3.0832 4.48891
upperback -13.2379 -4.32773 4.01328
thorax -6.47155 -2.3482 1.42309
lowerneck -4.62618 2.64141 -1.65286
upperneck 39.0458 3.93505 0.85365
head 14.0539 1.58391 1.14114
rclavicle 6.44932e-014 -1.11319e-014
rhumerus -16.5167 -16.7494 -4.10413
rradius 22.207
rwrist 10.0254
rhand 20.941 4.81674
rfingers 7.12502
rthumb 45.4107 -18.5192
lclavicle 6.44932e-014 -1.11319e-014
lhumerus 62.9426 15.0403 1.08905
lradius 63.6975
lwrist 23.3996
lhand 24.1219 13.1204
lfingers 7.12502
lthumb 48.3537 35.1665
rfemur -58.5968 -1.3136 35.4272
rtibia 42.1708
rfoot -37.8909 -38.4915
rtoes 36.138
lfemur -12.0862 1.26906 -23.5862
ltibia 33.7673
lfoot -13.6472 35.6205
ltoes 42.5832
496
root 1.37433 16.5193 27.5884 31.2054 8.74161 -2.05291
lowerback -12.9768 -3.15133 4.81252
upperback -13.48 -4.38651 3.93254
thorax -7.21089 -2.41678 1.22842
lowerneck -4.35384 2.82881 -1.39279
upperneck 38.9032 4.16642 0.812715
head 13.9305 1.71861 1.09703
rclavicle -2.49226e-014 2.38542e-014
rhumerus -16.2908 -16.9119 -4.47777
rradius 22.0862
rwrist 10.6802
rhand 20.9413 5.17331
rfingers 7.12502
rthumb 45.411 -18.1625
lclavicle -2.49226e-014 2.38542e-014
lhumerus 63.866 15.5901 3.28152
lradius 63.741
lwrist 26.8808
lhand 25.2875 13.955
lfingers 7.12502
lthumb 49.425 35.4745
rfemur -58.815 -1.42797 35.7213
rtibia 42.6304
rfoot -35.4014 -39.696
rtoes 34.6875
lfemur -12.2213 1.73748 -23.4956
ltibia 34.6414
lfoot -12.8018 34.7464
ltoes 42.2469
